IKResults																		
version=1																		
nRows=44																		
nColumns=19																		
inDegrees=yes																		
																		
"Units are S.I. units (second, meters, Newtons, ...)"																		
"If the header above contains a line with 'inDegrees', this indicates whether rotational values are in degrees (yes) or radians (no)."																		
																		
endheader																		
time	pelvis_tilt	pelvis_list	pelvis_rotation	pelvis_tx	pelvis_ty	pelvis_tz	hip_flexion_r	hip_adduction_r	hip_rotation_r	knee_angle_r	knee_angle_r_beta	ankle_angle_r	hip_flexion_l	hip_adduction_l	hip_rotation_l	knee_angle_l	knee_angle_l_beta	ankle_angle_l
4.63	-1.48785585	3.9907368	177.7313786	0	0.86428961	-0.44443745	5.27009835	3.64810098	-6.10467128	19.48534236	0.34008338	11.2428688	19.94589438	-12.2844808	-12.37699795	16.03915329	0.27993603	0.03537583
4.64	-1.58659089	3.75543003	177.6436415	0	0.86376417	-0.44431165	4.95947475	3.3695854	-5.9885316	19.84410582	0.34634498	11.88009097	20.090529	-11.64526837	-12.50152561	14.01573826	0.24462078	-0.16216081
4.65	-1.56587477	3.75763926	177.5936166	0	0.86297218	-0.44418087	4.73270234	3.35795199	-5.93973076	20.11017999	0.35098885	12.36154119	20.48552546	-11.32647889	-12.55712255	12.24019012	0.21363162	-0.15423503
4.66	-1.44701827	4.04672694	177.5505674	0	0.86190443	-0.44419461	4.56388958	3.67286296	-5.97986789	20.2825038	0.35399647	12.67221277	21.14504168	-11.4812462	-12.74227279	10.84537262	0.18928746	0.13715263
4.67	-1.37191686	3.7805224	177.4572021	0	0.86106916	-0.44380649	4.45904056	3.34877215	-5.79875228	20.67724969	0.36088609	13.33425796	21.35044612	-10.6173713	-12.34038079	8.60826489	0.15024257	-0.14533237
4.68	-1.33221642	3.77869069	177.3998535	0	0.86012207	-0.44352162	4.27497451	3.29733802	-5.84165993	20.99455839	0.36642417	13.80322132	21.64300801	-10.18491321	-12.03849055	6.69860393	0.11691269	-0.24980413
4.69	-1.18944024	4.10495931	177.3255579	0	0.85890386	-0.4434521	4.11569668	3.63022809	-5.92377228	21.14740539	0.36909185	14.10002504	22.28228642	-10.38786558	-12.16552949	5.39755298	0.09420507	0.06036718
4.7	-1.02548234	3.83951958	177.2246478	0	0.85783027	-0.44297864	4.1186542	3.29783654	-5.72999011	21.57746024	0.37659773	14.77663683	22.43776115	-9.40525469	-11.13510979	3.0592561	0.05339409	-0.27821274
4.71	-0.87171409	4.00164654	177.137766	0	0.85654799	-0.44280575	4.01072755	3.45647989	-5.66023876	21.82682541	0.38094997	15.20433993	22.95262772	-9.27831664	-10.75662778	1.64292615	0.02867447	-0.10088692
4.72	-0.80504276	4.27721782	177.1050059	0	0.85526558	-0.44269688	3.76365818	3.71985273	-5.78216507	21.97470187	0.3835309	15.47151667	23.62860623	-9.49465866	-10.86873673	0.83617351	0.01459398	0.18504029
4.73	-0.53162154	4.65280714	177.0745591	0	0.8535791	-0.44265379	3.79330007	4.14194395	-5.65601295	22.26556382	0.3886074	16.12560627	24.71017766	-9.84681431	-10.77631283	0.48058245	0.00838775	0.82191185
4.74	0.07592606	4.9042569	176.9414959	0	0.85151249	-0.4427227	4.23052772	4.44163432	-5.48525028	22.62104848	0.39481178	16.58391639	26.19217326	-10.18395553	-10.95286306	0.35091093	0.00612455	1.57776573
4.75	0.21764573	5.2675217	176.9285022	0	0.8499858	-0.44270026	4.04431445	4.80331862	-5.62083385	22.77529076	0.39750381	16.97283498	27.1445322	-10.65404673	-11.29418155	0.27480208	0.0047962	2.0756905
4.76	0.72622326	5.57101706	176.7185511	0	0.84805197	-0.44291067	4.30049183	5.18094373	-5.29110793	23.03488174	0.40203453	17.44898072	28.40577839	-11.10183813	-11.54700334	0.23413157	0.00408637	2.83207148
4.77	1.043801	5.87414161	176.5667411	0	0.84635424	-0.44302193	4.29574303	5.50820432	-5.19613361	23.2133475	0.40514934	17.86209438	29.40219051	-11.53268439	-11.82766705	0.20687684	0.00361068	3.39330713
4.78	1.26489446	6.17846074	176.4096866	0	0.84477422	-0.44313812	4.12930864	5.83863567	-5.04085353	23.3046403	0.4067427	18.2580334	30.21566408	-11.95550781	-12.06898371	0.18796238	0.00328056	3.97243242
4.79	1.4747389	6.47010061	176.2325808	0	0.84322903	-0.44324609	3.91597019	6.15128941	-4.87746377	23.36171378	0.40773882	18.63904811	30.93224474	-12.35400319	-12.26133859	0.17582172	0.00306867	4.50819532
4.8	1.67626868	6.729058	176.0286695	0	0.84171513	-0.44336352	3.67239555	6.42345771	-4.67988781	23.38248152	0.40810129	18.9864113	31.55915162	-12.70674125	-12.37272843	0.16702192	0.00291508	4.98590734
4.81	1.8359172	6.97710485	175.8244501	0	0.84023844	-0.44344537	3.3461626	6.67523412	-4.47619597	23.36101844	0.40772669	19.33993446	32.05885694	-13.01664712	-12.37919816	0.16104772	0.00281081	5.41548542
4.82	1.9695182	7.17164893	175.598486	0	0.83880601	-0.44348636	2.98006203	6.82567744	-4.42760725	23.32701795	0.40713327	19.63404617	32.4384912	-13.26465673	-12.35162	0.1554058	0.00271234	5.67079941
4.83	2.12676551	7.41619025	175.3759632	0	0.83735162	-0.44353279	2.55649819	7.10446588	-3.99292082	23.17320373	0.4044487	19.97348057	32.77689283	-13.50901651	-12.10415528	0.15505801	0.00270627	6.09058521
4.84	2.28131456	7.51641865	175.1507253	0	0.83590971	-0.44346314	2.18256202	7.13047588	-3.98725615	23.10965391	0.40333955	20.27432954	33.02534687	-13.63089704	-12.00775421	0.15587187	0.00272048	6.17233968
4.85	2.33712359	7.79321483	174.9131069	0	0.83463669	-0.44344481	1.51901567	7.44849664	-3.39496742	22.73793632	0.39685185	20.46494883	33.09603637	-13.8356823	-11.46372787	0.15511977	0.00270735	6.41952696
4.86	2.50081338	7.9120342	174.6658624	0	0.83319966	-0.44334682	1.08592685	7.49978077	-3.30660807	22.59125714	0.39429182	20.77049586	33.20955762	-13.94745606	-11.21807804	0.16074634	0.00280555	6.43710819
4.87	2.44348435	8.05159109	174.4634876	0	0.8321715	-0.44315848	0.248717	7.62964778	-2.76054067	22.11941936	0.3860567	20.86563878	33.0166637	-13.98608954	-10.68830483	0.1588612	0.00277265	6.20138148
4.88	2.53451625	8.10489881	174.2231383	0	0.83096392	-0.44294746	-0.33866126	7.62620755	-2.43894427	21.82690976	0.38095144	21.05719617	32.92758497	-13.98101317	-10.279701	0.16326105	0.00284944	5.84426149
4.89	2.64423281	8.12868389	174.0639245	0	0.82980802	-0.44251003	-0.96875664	7.56112991	-2.30684112	21.40563907	0.37359888	21.13487035	32.81463387	-13.90307274	-9.87220137	0.16987911	0.00296495	5.60794709
4.9	2.61339583	8.14320308	173.7879735	0	0.82893317	-0.44228594	-1.73538684	7.50905364	-1.80849001	21.0422877	0.3672572	21.27846506	32.48452554	-13.93023384	-9.68794984	0.17628157	0.00307669	4.72771455
4.91	2.44137631	8.11446583	173.5799631	0	0.82836975	-0.4419333	-2.73466719	7.38012673	-1.39270243	20.50442237	0.35786968	21.3177278	31.958987	-13.91846044	-9.68470612	0.18700422	0.00326384	3.90843555
4.92	2.38080761	8.02768924	173.3549844	0	0.82777806	-0.44148314	-3.54978527	7.17247314	-1.06205022	20.07595414	0.3503915	21.34179681	31.52534154	-13.85318085	-9.69131995	0.20138759	0.00351488	2.9799728
4.93	2.48365716	7.80977711	173.1347356	0	0.82711009	-0.44092401	-4.08558694	6.81563292	-0.80901997	19.80807035	0.34571605	21.36929515	31.25362914	-13.63703889	-9.61769095	0.21806515	0.00380595	2.11349029
4.94	2.16223021	7.68761692	172.9312443	0	0.82711336	-0.44045369	-5.19060725	6.52358884	-0.47927399	19.34104248	0.33756487	21.30211798	30.48363573	-13.62469859	-10.03354626	0.24482029	0.00427292	0.99545701
4.95	2.05109892	7.45834176	172.7300379	0	0.82700075	-0.43980196	-5.94074412	6.10243674	-0.30083803	19.08038365	0.33301552	21.22723295	29.94098887	-13.46023319	-10.29277802	0.27865128	0.00486338	-0.07144538
4.96	1.9098668	7.20407737	172.5264295	0	0.8270486	-0.43912911	-6.65596037	5.63303805	-0.17723218	18.92113418	0.33023609	21.10457542	29.35215804	-13.28259468	-10.62732661	0.32560181	0.00568282	-1.06971192
4.97	1.72105748	6.93386319	172.3207681	0	0.82729592	-0.43835489	-7.36376707	5.11971745	-0.07969433	18.84697829	0.32894183	20.9156807	28.70040421	-13.086164	-11.01078409	0.39251643	0.0068507	-1.95580773
4.98	1.67021267	6.64277623	172.1042604	0	0.82752534	-0.43751917	-7.80233541	4.58707062	-0.01103531	18.97123639	0.33111054	20.6453894	28.20344749	-12.83678044	-11.24647701	0.48079181	0.0083914	-2.65302293
4.99	1.41220439	6.38759305	171.9207252	0	0.82806343	-0.43662025	-8.39964375	4.03357752	-0.12247032	19.1875908	0.33488663	20.29408289	27.49857437	-12.66107462	-11.74978895	0.62642374	0.01093316	-3.35925975
5	1.44198784	6.25642582	171.7837551	0	0.82839603	-0.43560914	-8.65191722	3.68934714	-0.04049647	19.48707629	0.34011364	19.90121202	27.17195192	-12.51583278	-11.75287306	0.88459939	0.01543917	-3.60317557
5.01	1.17374396	6.01105437	171.5719766	0	0.82916849	-0.43465104	-8.96194528	3.07101462	-0.42813338	20.17484089	0.3521174	19.1282194	26.43416598	-12.36557447	-12.43186362	1.06755998	0.01863244	-4.01046547
5.02	1.13177864	5.91890681	171.5148277	0	0.82976771	-0.4335169	-9.13992591	2.77796748	-0.27437971	20.70395834	0.36135224	18.60312523	26.06201718	-12.19833929	-12.36893384	1.3904182	0.02426738	-4.15841841
5.03	0.8995896	5.66981358	171.2828783	0	0.83063336	-0.43242339	-9.09002112	2.07447618	-0.93923264	21.90905557	0.38238516	17.46393902	25.30287282	-11.99868337	-13.08497666	1.51512498	0.02644392	-4.17548935
5.04	0.80336886	5.56815959	171.1467996	0	0.83145469	-0.43124934	-8.91045552	1.62510909	-1.26560324	23.08751463	0.40295315	16.30734612	24.72208507	-11.81820195	-13.30000209	1.64080377	0.02863743	-4.05768833
5.05	0.72737499	5.48563786	171.0170438	0	0.83229476	-0.43001228	-8.56418514	1.17414242	-1.6504346	24.49035956	0.42743741	14.95125949	24.11631313	-11.60722286	-13.45892809	1.67708331	0.02927063	-3.85254662
5.06	0.74235061	5.40652453	170.9087992	0	0.83307204	-0.42867748	-7.94895917	0.71192508	-2.12423928	26.17480501	0.45683653	13.50343351	23.56951057	-11.33347181	-13.46508233	1.60831285	0.02807035	-3.62811956
